<svg xmlns="http://www.w3.org/2000/svg" width="188" height="188" fill="none"><circle cx="94" cy="94" r="88" fill="#1F1D2B" stroke="#fff" stroke-width="11.478" opacity=".1"/><circle cx="94" cy="94" r="76.522" fill="#1F1D2B" stroke="#fff" stroke-width="11.478" opacity=".05"/><circle cx="93.999" cy="94" r="65.043" fill="#1F1D2B" stroke="#fff" stroke-width="11.478" opacity=".1"/><circle cx="94" cy="94" r="53.565" fill="#1F1D2B" stroke="#fff" stroke-width="11.478" opacity=".05"/><path stroke="#65B0F6" stroke-linecap="round" stroke-width="11.478" d="M6 94c0 48.601 39.399 88 88 88s88-39.399 88-88S142.601 6 94 6"/><path stroke="#FFB572" stroke-linecap="round" stroke-width="11.478" d="M94 170.522c42.262 0 76.522-34.26 76.522-76.522 0-42.261-34.26-76.522-76.522-76.522"/><path stroke="#FF7CA3" stroke-linecap="round" stroke-width="11.478" d="M94.439 28.404a65.046 65.046 0 0 1 65.04 64.38 65.04 65.04 0 0 1-31.563 56.431 65.043 65.043 0 0 1-88.899-21.722"/></svg>